<svg xmlns="http://www.w3.org/2000/svg" style="display:none">
<symbol id="i-plus" viewBox="0 0 24 24" fill="none" stroke="currentColor" stroke-width="2" stroke-linecap="round" stroke-linejoin="round"><path d="M5 12h14" /> <path d="M12 5v14" /></symbol>
<symbol id="i-calendar" viewBox="0 0 24 24" fill="none" stroke="currentColor" stroke-width="2" stroke-linecap="round" stroke-linejoin="round"><path d="M8 2v4" /> <path d="M16 2v4" /> <rect width="18" height="18" x="3" y="4" rx="2" /> <path d="M3 10h18" /></symbol>
<symbol id="i-calendar-days" viewBox="0 0 24 24" fill="none" stroke="currentColor" stroke-width="2" stroke-linecap="round" stroke-linejoin="round"><path d="M8 2v4" /> <path d="M16 2v4" /> <rect width="18" height="18" x="3" y="4" rx="2" /> <path d="M3 10h18" /> <path d="M8 14h.01" /> <path d="M12 14h.01" /> <path d="M16 14h.01" /> <path d="M8 18h.01" /> <path d="M12 18h.01" /> <path d="M16 18h.01" /></symbol>
<symbol id="i-clock" viewBox="0 0 24 24" fill="none" stroke="currentColor" stroke-width="2" stroke-linecap="round" stroke-linejoin="round"><circle cx="12" cy="12" r="10" /> <polyline points="12 6 12 12 16 14" /></symbol>
<symbol id="i-send" viewBox="0 0 24 24" fill="none" stroke="currentColor" stroke-width="2" stroke-linecap="round" stroke-linejoin="round"><path d="M14.536 21.686a.5.5 0 0 0 .937-.024l6.5-19a.496.496 0 0 0-.635-.635l-19 6.5a.5.5 0 0 0-.024.937l7.93 3.18a2 2 0 0 1 1.112 1.11z" /> <path d="m21.854 2.147-10.94 10.939" /></symbol>
<symbol id="i-moon" viewBox="0 0 24 24" fill="none" stroke="currentColor" stroke-width="2" stroke-linecap="round" stroke-linejoin="round"><path d="M12 3a6 6 0 0 0 9 9 9 9 0 1 1-9-9Z" /></symbol>
<symbol id="i-sun" viewBox="0 0 24 24" fill="none" stroke="currentColor" stroke-width="2" stroke-linecap="round" stroke-linejoin="round"><circle cx="12" cy="12" r="4" /> <path d="M12 2v2" /> <path d="M12 20v2" /> <path d="m4.93 4.93 1.41 1.41" /> <path d="m17.66 17.66 1.41 1.41" /> <path d="M2 12h2" /> <path d="M20 12h2" /> <path d="m6.34 17.66-1.41 1.41" /> <path d="m19.07 4.93-1.41 1.41" /></symbol>
<symbol id="i-image" viewBox="0 0 24 24" fill="none" stroke="currentColor" stroke-width="2" stroke-linecap="round" stroke-linejoin="round"><rect width="18" height="18" x="3" y="3" rx="2" ry="2" /> <circle cx="9" cy="9" r="2" /> <path d="m21 15-3.086-3.086a2 2 0 0 0-2.828 0L6 21" /></symbol>
<symbol id="i-images" viewBox="0 0 24 24" fill="none" stroke="currentColor" stroke-width="2" stroke-linecap="round" stroke-linejoin="round"><path d="M18 22H4a2 2 0 0 1-2-2V6" /> <path d="m22 13-1.296-1.296a2.41 2.41 0 0 0-3.408 0L11 18" /> <circle cx="12" cy="8" r="2" /> <rect width="16" height="16" x="6" y="2" rx="2" /></symbol>
<symbol id="i-check" viewBox="0 0 24 24" fill="none" stroke="currentColor" stroke-width="2" stroke-linecap="round" stroke-linejoin="round"><path d="M20 6 9 17l-5-5" /></symbol>
<symbol id="i-circle-check" viewBox="0 0 24 24" fill="none" stroke="currentColor" stroke-width="2" stroke-linecap="round" stroke-linejoin="round"><circle cx="12" cy="12" r="10" /> <path d="m9 12 2 2 4-4" /></symbol>
<symbol id="i-triangle-alert" viewBox="0 0 24 24" fill="none" stroke="currentColor" stroke-width="2" stroke-linecap="round" stroke-linejoin="round"><path d="m21.73 18-8-14a2 2 0 0 0-3.48 0l-8 14A2 2 0 0 0 4 21h16a2 2 0 0 0 1.73-3" /> <path d="M12 9v4" /> <path d="M12 17h.01" /></symbol>
<symbol id="i-ellipsis" viewBox="0 0 24 24" fill="none" stroke="currentColor" stroke-width="2" stroke-linecap="round" stroke-linejoin="round"><circle cx="12" cy="12" r="1" /> <circle cx="19" cy="12" r="1" /> <circle cx="5" cy="12" r="1" /></symbol>
<symbol id="i-ellipsis-vertical" viewBox="0 0 24 24" fill="none" stroke="currentColor" stroke-width="2" stroke-linecap="round" stroke-linejoin="round"><circle cx="12" cy="12" r="1" /> <circle cx="12" cy="5" r="1" /> <circle cx="12" cy="19" r="1" /></symbol>
<symbol id="i-x" viewBox="0 0 24 24" fill="none" stroke="currentColor" stroke-width="2" stroke-linecap="round" stroke-linejoin="round"><path d="M18 6 6 18" /> <path d="m6 6 12 12" /></symbol>
<symbol id="i-chevron-down" viewBox="0 0 24 24" fill="none" stroke="currentColor" stroke-width="2" stroke-linecap="round" stroke-linejoin="round"><path d="m6 9 6 6 6-6" /></symbol>
<symbol id="i-chevron-left" viewBox="0 0 24 24" fill="none" stroke="currentColor" stroke-width="2" stroke-linecap="round" stroke-linejoin="round"><path d="m15 18-6-6 6-6" /></symbol>
<symbol id="i-chevron-right" viewBox="0 0 24 24" fill="none" stroke="currentColor" stroke-width="2" stroke-linecap="round" stroke-linejoin="round"><path d="m9 18 6-6-6-6" /></symbol>
<symbol id="i-chevron-up" viewBox="0 0 24 24" fill="none" stroke="currentColor" stroke-width="2" stroke-linecap="round" stroke-linejoin="round"><path d="m18 15-6-6-6 6" /></symbol>
<symbol id="i-menu" viewBox="0 0 24 24" fill="none" stroke="currentColor" stroke-width="2" stroke-linecap="round" stroke-linejoin="round"><line x1="4" x2="20" y1="12" y2="12" /> <line x1="4" x2="20" y1="6" y2="6" /> <line x1="4" x2="20" y1="18" y2="18" /></symbol>
<symbol id="i-search" viewBox="0 0 24 24" fill="none" stroke="currentColor" stroke-width="2" stroke-linecap="round" stroke-linejoin="round"><circle cx="11" cy="11" r="8" /> <path d="m21 21-4.3-4.3" /></symbol>
<symbol id="i-bell" viewBox="0 0 24 24" fill="none" stroke="currentColor" stroke-width="2" stroke-linecap="round" stroke-linejoin="round"><path d="M10.268 21a2 2 0 0 0 3.464 0" /> <path d="M3.262 15.326A1 1 0 0 0 4 17h16a1 1 0 0 0 .74-1.673C19.41 13.956 18 12.499 18 8A6 6 0 0 0 6 8c0 4.499-1.411 5.956-2.738 7.326" /></symbol>
<symbol id="i-settings" viewBox="0 0 24 24" fill="none" stroke="currentColor" stroke-width="2" stroke-linecap="round" stroke-linejoin="round"><path d="M12.22 2h-.44a2 2 0 0 0-2 2v.18a2 2 0 0 1-1 1.73l-.43.25a2 2 0 0 1-2 0l-.15-.08a2 2 0 0 0-2.73.73l-.22.38a2 2 0 0 0 .73 2.73l.15.1a2 2 0 0 1 1 1.72v.51a2 2 0 0 1-1 1.74l-.15.09a2 2 0 0 0-.73 2.73l.22.38a2 2 0 0 0 2.73.73l.15-.08a2 2 0 0 1 2 0l.43.25a2 2 0 0 1 1 1.73V20a2 2 0 0 0 2 2h.44a2 2 0 0 0 2-2v-.18a2 2 0 0 1 1-1.73l.43-.25a2 2 0 0 1 2 0l.15.08a2 2 0 0 0 2.73-.73l.22-.39a2 2 0 0 0-.73-2.73l-.15-.08a2 2 0 0 1-1-1.74v-.5a2 2 0 0 1 1-1.74l.15-.09a2 2 0 0 0 .73-2.73l-.22-.38a2 2 0 0 0-2.73-.73l-.15.08a2 2 0 0 1-2 0l-.43-.25a2 2 0 0 1-1-1.73V4a2 2 0 0 0-2-2z" /> <circle cx="12" cy="12" r="3" /></symbol>
<symbol id="i-user" viewBox="0 0 24 24" fill="none" stroke="currentColor" stroke-width="2" stroke-linecap="round" stroke-linejoin="round"><path d="M19 21v-2a4 4 0 0 0-4-4H9a4 4 0 0 0-4 4v2" /> <circle cx="12" cy="7" r="4" /></symbol>
<symbol id="i-users" viewBox="0 0 24 24" fill="none" stroke="currentColor" stroke-width="2" stroke-linecap="round" stroke-linejoin="round"><path d="M16 21v-2a4 4 0 0 0-4-4H6a4 4 0 0 0-4 4v2" /> <circle cx="9" cy="7" r="4" /> <path d="M22 21v-2a4 4 0 0 0-3-3.87" /> <path d="M16 3.13a4 4 0 0 1 0 7.75" /></symbol>
<symbol id="i-log-out" viewBox="0 0 24 24" fill="none" stroke="currentColor" stroke-width="2" stroke-linecap="round" stroke-linejoin="round"><path d="M9 21H5a2 2 0 0 1-2-2V5a2 2 0 0 1 2-2h4" /> <polyline points="16 17 21 12 16 7" /> <line x1="21" x2="9" y1="12" y2="12" /></symbol>
<symbol id="i-house" viewBox="0 0 24 24" fill="none" stroke="currentColor" stroke-width="2" stroke-linecap="round" stroke-linejoin="round"><path d="M15 21v-8a1 1 0 0 0-1-1h-4a1 1 0 0 0-1 1v8" /> <path d="M3 10a2 2 0 0 1 .709-1.528l7-5.999a2 2 0 0 1 2.582 0l7 5.999A2 2 0 0 1 21 10v9a2 2 0 0 1-2 2H5a2 2 0 0 1-2-2z" /></symbol>
<symbol id="i-layout-dashboard" viewBox="0 0 24 24" fill="none" stroke="currentColor" stroke-width="2" stroke-linecap="round" stroke-linejoin="round"><rect width="7" height="9" x="3" y="3" rx="1" /> <rect width="7" height="5" x="14" y="3" rx="1" /> <rect width="7" height="9" x="14" y="12" rx="1" /> <rect width="7" height="5" x="3" y="16" rx="1" /></symbol>
<symbol id="i-link" viewBox="0 0 24 24" fill="none" stroke="currentColor" stroke-width="2" stroke-linecap="round" stroke-linejoin="round"><path d="M10 13a5 5 0 0 0 7.54.54l3-3a5 5 0 0 0-7.07-7.07l-1.72 1.71" /> <path d="M14 11a5 5 0 0 0-7.54-.54l-3 3a5 5 0 0 0 7.07 7.07l1.71-1.71" /></symbol>
<symbol id="i-trash-2" viewBox="0 0 24 24" fill="none" stroke="currentColor" stroke-width="2" stroke-linecap="round" stroke-linejoin="round"><path d="M3 6h18" /> <path d="M19 6v14c0 1-1 2-2 2H7c-1 0-2-1-2-2V6" /> <path d="M8 6V4c0-1 1-2 2-2h4c1 0 2 1 2 2v2" /> <line x1="10" x2="10" y1="11" y2="17" /> <line x1="14" x2="14" y1="11" y2="17" /></symbol>
<symbol id="i-pencil" viewBox="0 0 24 24" fill="none" stroke="currentColor" stroke-width="2" stroke-linecap="round" stroke-linejoin="round"><path d="M21.174 6.812a1 1 0 0 0-3.986-3.987L3.842 16.174a2 2 0 0 0-.5.83l-1.321 4.352a.5.5 0 0 0 .623.622l4.353-1.32a2 2 0 0 0 .83-.497z" /> <path d="m15 5 4 4" /></symbol>
<symbol id="i-copy" viewBox="0 0 24 24" fill="none" stroke="currentColor" stroke-width="2" stroke-linecap="round" stroke-linejoin="round"><rect width="14" height="14" x="8" y="8" rx="2" ry="2" /> <path d="M4 16c-1.1 0-2-.9-2-2V4c0-1.1.9-2 2-2h10c1.1 0 2 .9 2 2" /></symbol>
<symbol id="i-eye" viewBox="0 0 24 24" fill="none" stroke="currentColor" stroke-width="2" stroke-linecap="round" stroke-linejoin="round"><path d="M2.062 12.348a1 1 0 0 1 0-.696 10.75 10.75 0 0 1 19.876 0 1 1 0 0 1 0 .696 10.75 10.75 0 0 1-19.876 0" /> <circle cx="12" cy="12" r="3" /></symbol>
<symbol id="i-eye-off" viewBox="0 0 24 24" fill="none" stroke="currentColor" stroke-width="2" stroke-linecap="round" stroke-linejoin="round"><path d="M10.733 5.076a10.744 10.744 0 0 1 11.205 6.575 1 1 0 0 1 0 .696 10.747 10.747 0 0 1-1.444 2.49" /> <path d="M14.084 14.158a3 3 0 0 1-4.242-4.242" /> <path d="M17.479 17.499a10.75 10.75 0 0 1-15.417-5.151 1 1 0 0 1 0-.696 10.75 10.75 0 0 1 4.446-5.143" /> <path d="m2 2 20 20" /></symbol>
<symbol id="i-upload" viewBox="0 0 24 24" fill="none" stroke="currentColor" stroke-width="2" stroke-linecap="round" stroke-linejoin="round"><path d="M21 15v4a2 2 0 0 1-2 2H5a2 2 0 0 1-2-2v-4" /> <polyline points="17 8 12 3 7 8" /> <line x1="12" x2="12" y1="3" y2="15" /></symbol>
<symbol id="i-cloud-upload" viewBox="0 0 24 24" fill="none" stroke="currentColor" stroke-width="2" stroke-linecap="round" stroke-linejoin="round"><path d="M12 13v8" /> <path d="M4 14.899A7 7 0 1 1 15.71 8h1.79a4.5 4.5 0 0 1 2.5 8.242" /> <path d="m8 17 4-4 4 4" /></symbol>
<symbol id="i-file" viewBox="0 0 24 24" fill="none" stroke="currentColor" stroke-width="2" stroke-linecap="round" stroke-linejoin="round"><path d="M15 2H6a2 2 0 0 0-2 2v16a2 2 0 0 0 2 2h12a2 2 0 0 0 2-2V7Z" /> <path d="M14 2v4a2 2 0 0 0 2 2h4" /></symbol>
<symbol id="i-info" viewBox="0 0 24 24" fill="none" stroke="currentColor" stroke-width="2" stroke-linecap="round" stroke-linejoin="round"><circle cx="12" cy="12" r="10" /> <path d="M12 16v-4" /> <path d="M12 8h.01" /></symbol>
<symbol id="i-circle-help" viewBox="0 0 24 24" fill="none" stroke="currentColor" stroke-width="2" stroke-linecap="round" stroke-linejoin="round"><circle cx="12" cy="12" r="10" /> <path d="M9.09 9a3 3 0 0 1 5.83 1c0 2-3 3-3 3" /> <path d="M12 17h.01" /></symbol>
<symbol id="i-arrow-up-down" viewBox="0 0 24 24" fill="none" stroke="currentColor" stroke-width="2" stroke-linecap="round" stroke-linejoin="round"><path d="m21 16-4 4-4-4" /> <path d="M17 20V4" /> <path d="m3 8 4-4 4 4" /> <path d="M7 4v16" /></symbol>
<symbol id="i-arrow-up" viewBox="0 0 24 24" fill="none" stroke="currentColor" stroke-width="2" stroke-linecap="round" stroke-linejoin="round"><path d="m5 12 7-7 7 7" /> <path d="M12 19V5" /></symbol>
<symbol id="i-arrow-down" viewBox="0 0 24 24" fill="none" stroke="currentColor" stroke-width="2" stroke-linecap="round" stroke-linejoin="round"><path d="M12 5v14" /> <path d="m19 12-7 7-7-7" /></symbol>
<symbol id="i-chart-column" viewBox="0 0 24 24" fill="none" stroke="currentColor" stroke-width="2" stroke-linecap="round" stroke-linejoin="round"><path d="M3 3v16a2 2 0 0 0 2 2h16" /> <path d="M18 17V9" /> <path d="M13 17V5" /> <path d="M8 17v-3" /></symbol>
<symbol id="i-message-circle" viewBox="0 0 24 24" fill="none" stroke="currentColor" stroke-width="2" stroke-linecap="round" stroke-linejoin="round"><path d="M7.9 20A9 9 0 1 0 4 16.1L2 22Z" /></symbol>
<symbol id="i-sparkles" viewBox="0 0 24 24" fill="none" stroke="currentColor" stroke-width="2" stroke-linecap="round" stroke-linejoin="round"><path d="M9.937 15.5A2 2 0 0 0 8.5 14.063l-6.135-1.582a.5.5 0 0 1 0-.962L8.5 9.936A2 2 0 0 0 9.937 8.5l1.582-6.135a.5.5 0 0 1 .963 0L14.063 8.5A2 2 0 0 0 15.5 9.937l6.135 1.581a.5.5 0 0 1 0 .964L15.5 14.063a2 2 0 0 0-1.437 1.437l-1.582 6.135a.5.5 0 0 1-.963 0z" /> <path d="M20 3v4" /> <path d="M22 5h-4" /> <path d="M4 17v2" /> <path d="M5 18H3" /></symbol>
<symbol id="i-paperclip" viewBox="0 0 24 24" fill="none" stroke="currentColor" stroke-width="2" stroke-linecap="round" stroke-linejoin="round"><path d="M13.234 20.252 21 12.3" /> <path d="m16 6-8.414 8.586a2 2 0 0 0 0 2.828 2 2 0 0 0 2.828 0l8.414-8.586a4 4 0 0 0 0-5.656 4 4 0 0 0-5.656 0l-8.415 8.585a6 6 0 1 0 8.486 8.486" /></symbol>
<symbol id="i-smile" viewBox="0 0 24 24" fill="none" stroke="currentColor" stroke-width="2" stroke-linecap="round" stroke-linejoin="round"><circle cx="12" cy="12" r="10" /> <path d="M8 14s1.5 2 4 2 4-2 4-2" /> <line x1="9" x2="9.01" y1="9" y2="9" /> <line x1="15" x2="15.01" y1="9" y2="9" /></symbol>
<symbol id="i-heart" viewBox="0 0 24 24" fill="none" stroke="currentColor" stroke-width="2" stroke-linecap="round" stroke-linejoin="round"><path d="M19 14c1.49-1.46 3-3.21 3-5.5A5.5 5.5 0 0 0 16.5 3c-1.76 0-3 .5-4.5 2-1.5-1.5-2.74-2-4.5-2A5.5 5.5 0 0 0 2 8.5c0 2.3 1.5 4.05 3 5.5l7 7Z" /></symbol>
<symbol id="i-share-2" viewBox="0 0 24 24" fill="none" stroke="currentColor" stroke-width="2" stroke-linecap="round" stroke-linejoin="round"><circle cx="18" cy="5" r="3" /> <circle cx="6" cy="12" r="3" /> <circle cx="18" cy="19" r="3" /> <line x1="8.59" x2="15.42" y1="13.51" y2="17.49" /> <line x1="15.41" x2="8.59" y1="6.51" y2="10.49" /></symbol>
<symbol id="i-hash" viewBox="0 0 24 24" fill="none" stroke="currentColor" stroke-width="2" stroke-linecap="round" stroke-linejoin="round"><line x1="4" x2="20" y1="9" y2="9" /> <line x1="4" x2="20" y1="15" y2="15" /> <line x1="10" x2="8" y1="3" y2="21" /> <line x1="16" x2="14" y1="3" y2="21" /></symbol>
<symbol id="i-globe" viewBox="0 0 24 24" fill="none" stroke="currentColor" stroke-width="2" stroke-linecap="round" stroke-linejoin="round"><circle cx="12" cy="12" r="10" /> <path d="M12 2a14.5 14.5 0 0 0 0 20 14.5 14.5 0 0 0 0-20" /> <path d="M2 12h20" /></symbol>
<symbol id="i-shield" viewBox="0 0 24 24" fill="none" stroke="currentColor" stroke-width="2" stroke-linecap="round" stroke-linejoin="round"><path d="M20 13c0 5-3.5 7.5-7.66 8.95a1 1 0 0 1-.67-.01C7.5 20.5 4 18 4 13V6a1 1 0 0 1 1-1c2 0 4.5-1.2 6.24-2.72a1.17 1.17 0 0 1 1.52 0C14.51 3.81 17 5 19 5a1 1 0 0 1 1 1z" /></symbol>
<symbol id="i-credit-card" viewBox="0 0 24 24" fill="none" stroke="currentColor" stroke-width="2" stroke-linecap="round" stroke-linejoin="round"><rect width="20" height="14" x="2" y="5" rx="2" /> <line x1="2" x2="22" y1="10" y2="10" /></symbol>
<symbol id="i-lock" viewBox="0 0 24 24" fill="none" stroke="currentColor" stroke-width="2" stroke-linecap="round" stroke-linejoin="round"><rect width="18" height="11" x="3" y="11" rx="2" ry="2" /> <path d="M7 11V7a5 5 0 0 1 10 0v4" /></symbol>
<symbol id="i-mail" viewBox="0 0 24 24" fill="none" stroke="currentColor" stroke-width="2" stroke-linecap="round" stroke-linejoin="round"><rect width="20" height="16" x="2" y="4" rx="2" /> <path d="m22 7-8.97 5.7a1.94 1.94 0 0 1-2.06 0L2 7" /></symbol>
<symbol id="i-refresh-cw" viewBox="0 0 24 24" fill="none" stroke="currentColor" stroke-width="2" stroke-linecap="round" stroke-linejoin="round"><path d="M3 12a9 9 0 0 1 9-9 9.75 9.75 0 0 1 6.74 2.74L21 8" /> <path d="M21 3v5h-5" /> <path d="M21 12a9 9 0 0 1-9 9 9.75 9.75 0 0 1-6.74-2.74L3 16" /> <path d="M8 16H3v5" /></symbol>
<symbol id="i-play" viewBox="0 0 24 24" fill="none" stroke="currentColor" stroke-width="2" stroke-linecap="round" stroke-linejoin="round"><polygon points="6 3 20 12 6 21 6 3" /></symbol>
<symbol id="i-pause" viewBox="0 0 24 24" fill="none" stroke="currentColor" stroke-width="2" stroke-linecap="round" stroke-linejoin="round"><rect x="14" y="4" width="4" height="16" rx="1" /> <rect x="6" y="4" width="4" height="16" rx="1" /></symbol>
<symbol id="i-grip-vertical" viewBox="0 0 24 24" fill="none" stroke="currentColor" stroke-width="2" stroke-linecap="round" stroke-linejoin="round"><circle cx="9" cy="12" r="1" /> <circle cx="9" cy="5" r="1" /> <circle cx="9" cy="19" r="1" /> <circle cx="15" cy="12" r="1" /> <circle cx="15" cy="5" r="1" /> <circle cx="15" cy="19" r="1" /></symbol>
<symbol id="i-list" viewBox="0 0 24 24" fill="none" stroke="currentColor" stroke-width="2" stroke-linecap="round" stroke-linejoin="round"><path d="M3 12h.01" /> <path d="M3 18h.01" /> <path d="M3 6h.01" /> <path d="M8 12h13" /> <path d="M8 18h13" /> <path d="M8 6h13" /></symbol>
<symbol id="i-layout-grid" viewBox="0 0 24 24" fill="none" stroke="currentColor" stroke-width="2" stroke-linecap="round" stroke-linejoin="round"><rect width="7" height="7" x="3" y="3" rx="1" /> <rect width="7" height="7" x="14" y="3" rx="1" /> <rect width="7" height="7" x="14" y="14" rx="1" /> <rect width="7" height="7" x="3" y="14" rx="1" /></symbol>
<symbol id="i-rocket" viewBox="0 0 24 24" fill="none" stroke="currentColor" stroke-width="2" stroke-linecap="round" stroke-linejoin="round"><path d="M4.5 16.5c-1.5 1.26-2 5-2 5s3.74-.5 5-2c.71-.84.7-2.13-.09-2.91a2.18 2.18 0 0 0-2.91-.09z" /> <path d="m12 15-3-3a22 22 0 0 1 2-3.95A12.88 12.88 0 0 1 22 2c0 2.72-.78 7.5-6 11a22.35 22.35 0 0 1-4 2z" /> <path d="M9 12H4s.55-3.03 2-4c1.62-1.08 5 0 5 0" /> <path d="M12 15v5s3.03-.55 4-2c1.08-1.62 0-5 0-5" /></symbol>
<symbol id="i-flag" viewBox="0 0 24 24" fill="none" stroke="currentColor" stroke-width="2" stroke-linecap="round" stroke-linejoin="round"><path d="M4 15s1-1 4-1 5 2 8 2 4-1 4-1V3s-1 1-4 1-5-2-8-2-4 1-4 1z" /> <line x1="4" x2="4" y1="22" y2="15" /></symbol>
<symbol id="i-circle-x" viewBox="0 0 24 24" fill="none" stroke="currentColor" stroke-width="2" stroke-linecap="round" stroke-linejoin="round"><circle cx="12" cy="12" r="10" /> <path d="m15 9-6 6" /> <path d="m9 9 6 6" /></symbol>
<symbol id="i-loader-circle" viewBox="0 0 24 24" fill="none" stroke="currentColor" stroke-width="2" stroke-linecap="round" stroke-linejoin="round"><path d="M21 12a9 9 0 1 1-6.219-8.56" /></symbol>
<symbol id="i-video" viewBox="0 0 24 24" fill="none" stroke="currentColor" stroke-width="2" stroke-linecap="round" stroke-linejoin="round"><path d="m16 13 5.223 3.482a.5.5 0 0 0 .777-.416V7.87a.5.5 0 0 0-.752-.432L16 10.5" /> <rect x="2" y="6" width="14" height="12" rx="2" /></symbol>
<symbol id="i-file-text" viewBox="0 0 24 24" fill="none" stroke="currentColor" stroke-width="2" stroke-linecap="round" stroke-linejoin="round"><path d="M15 2H6a2 2 0 0 0-2 2v16a2 2 0 0 0 2 2h12a2 2 0 0 0 2-2V7Z" /> <path d="M14 2v4a2 2 0 0 0 2 2h4" /> <path d="M10 9H8" /> <path d="M16 13H8" /> <path d="M16 17H8" /></symbol>
<symbol id="i-tag" viewBox="0 0 24 24" fill="none" stroke="currentColor" stroke-width="2" stroke-linecap="round" stroke-linejoin="round"><path d="M12.586 2.586A2 2 0 0 0 11.172 2H4a2 2 0 0 0-2 2v7.172a2 2 0 0 0 .586 1.414l8.704 8.704a2.426 2.426 0 0 0 3.42 0l6.58-6.58a2.426 2.426 0 0 0 0-3.42z" /> <circle cx="7.5" cy="7.5" r=".5" fill="currentColor" /></symbol>
<symbol id="i-building-2" viewBox="0 0 24 24" fill="none" stroke="currentColor" stroke-width="2" stroke-linecap="round" stroke-linejoin="round"><path d="M6 22V4a2 2 0 0 1 2-2h8a2 2 0 0 1 2 2v18Z" /> <path d="M6 12H4a2 2 0 0 0-2 2v6a2 2 0 0 0 2 2h2" /> <path d="M18 9h2a2 2 0 0 1 2 2v9a2 2 0 0 1-2 2h-2" /> <path d="M10 6h4" /> <path d="M10 10h4" /> <path d="M10 14h4" /> <path d="M10 18h4" /></symbol>
<symbol id="i-wallet" viewBox="0 0 24 24" fill="none" stroke="currentColor" stroke-width="2" stroke-linecap="round" stroke-linejoin="round"><path d="M19 7V4a1 1 0 0 0-1-1H5a2 2 0 0 0 0 4h15a1 1 0 0 1 1 1v4h-3a2 2 0 0 0 0 4h3a1 1 0 0 0 1-1v-2a1 1 0 0 0-1-1" /> <path d="M3 5v14a2 2 0 0 0 2 2h15a1 1 0 0 0 1-1v-4" /></symbol>
<symbol id="i-life-buoy" viewBox="0 0 24 24" fill="none" stroke="currentColor" stroke-width="2" stroke-linecap="round" stroke-linejoin="round"><circle cx="12" cy="12" r="10" /> <path d="m4.93 4.93 4.24 4.24" /> <path d="m14.83 9.17 4.24-4.24" /> <path d="m14.83 14.83 4.24 4.24" /> <path d="m9.17 14.83-4.24 4.24" /> <circle cx="12" cy="12" r="4" /></symbol>
<symbol id="i-external-link" viewBox="0 0 24 24" fill="none" stroke="currentColor" stroke-width="2" stroke-linecap="round" stroke-linejoin="round"><path d="M15 3h6v6" /> <path d="M10 14 21 3" /> <path d="M18 13v6a2 2 0 0 1-2 2H5a2 2 0 0 1-2-2V8a2 2 0 0 1 2-2h6" /></symbol>
<symbol id="i-save" viewBox="0 0 24 24" fill="none" stroke="currentColor" stroke-width="2" stroke-linecap="round" stroke-linejoin="round"><path d="M15.2 3a2 2 0 0 1 1.4.6l3.8 3.8a2 2 0 0 1 .6 1.4V19a2 2 0 0 1-2 2H5a2 2 0 0 1-2-2V5a2 2 0 0 1 2-2z" /> <path d="M17 21v-7a1 1 0 0 0-1-1H8a1 1 0 0 0-1 1v7" /> <path d="M7 3v4a1 1 0 0 0 1 1h7" /></symbol>
<symbol id="i-repeat" viewBox="0 0 24 24" fill="none" stroke="currentColor" stroke-width="2" stroke-linecap="round" stroke-linejoin="round"><path d="m17 2 4 4-4 4" /> <path d="M3 11v-1a4 4 0 0 1 4-4h14" /> <path d="m7 22-4-4 4-4" /> <path d="M21 13v1a4 4 0 0 1-4 4H3" /></symbol>
<symbol id="i-zap" viewBox="0 0 24 24" fill="none" stroke="currentColor" stroke-width="2" stroke-linecap="round" stroke-linejoin="round"><path d="M4 14a1 1 0 0 1-.78-1.63l9.9-10.2a.5.5 0 0 1 .86.46l-1.92 6.02A1 1 0 0 0 13 10h7a1 1 0 0 1 .78 1.63l-9.9 10.2a.5.5 0 0 1-.86-.46l1.92-6.02A1 1 0 0 0 11 14z" /></symbol>
<symbol id="i-star" viewBox="0 0 24 24" fill="none" stroke="currentColor" stroke-width="2" stroke-linecap="round" stroke-linejoin="round"><path d="M11.525 2.295a.53.53 0 0 1 .95 0l2.31 4.679a2.123 2.123 0 0 0 1.595 1.16l5.166.756a.53.53 0 0 1 .294.904l-3.736 3.638a2.123 2.123 0 0 0-.611 1.878l.882 5.14a.53.53 0 0 1-.771.56l-4.618-2.428a2.122 2.122 0 0 0-1.973 0L6.396 21.01a.53.53 0 0 1-.77-.56l.881-5.139a2.122 2.122 0 0 0-.611-1.879L2.16 9.795a.53.53 0 0 1 .294-.906l5.165-.755a2.122 2.122 0 0 0 1.597-1.16z" /></symbol>
<symbol id="i-check-check" viewBox="0 0 24 24" fill="none" stroke="currentColor" stroke-width="2" stroke-linecap="round" stroke-linejoin="round"><path d="M18 6 7 17l-5-5" /> <path d="m22 10-7.5 7.5L13 16" /></symbol>
<symbol id="i-circle-alert" viewBox="0 0 24 24" fill="none" stroke="currentColor" stroke-width="2" stroke-linecap="round" stroke-linejoin="round"><circle cx="12" cy="12" r="10" /> <line x1="12" x2="12" y1="8" y2="12" /> <line x1="12" x2="12.01" y1="16" y2="16" /></symbol>
<symbol id="i-filter" viewBox="0 0 24 24" fill="none" stroke="currentColor" stroke-width="2" stroke-linecap="round" stroke-linejoin="round"><polygon points="22 3 2 3 10 12.46 10 19 14 21 14 12.46 22 3" /></symbol>
<symbol id="i-download" viewBox="0 0 24 24" fill="none" stroke="currentColor" stroke-width="2" stroke-linecap="round" stroke-linejoin="round"><path d="M21 15v4a2 2 0 0 1-2 2H5a2 2 0 0 1-2-2v-4" /> <polyline points="7 10 12 15 17 10" /> <line x1="12" x2="12" y1="15" y2="3" /></symbol>
<symbol id="i-folder" viewBox="0 0 24 24" fill="none" stroke="currentColor" stroke-width="2" stroke-linecap="round" stroke-linejoin="round"><path d="M20 20a2 2 0 0 0 2-2V8a2 2 0 0 0-2-2h-7.9a2 2 0 0 1-1.69-.9L9.6 3.9A2 2 0 0 0 7.93 3H4a2 2 0 0 0-2 2v13a2 2 0 0 0 2 2Z" /></symbol>
<symbol id="i-folder-plus" viewBox="0 0 24 24" fill="none" stroke="currentColor" stroke-width="2" stroke-linecap="round" stroke-linejoin="round"><path d="M12 10v6" /> <path d="M9 13h6" /> <path d="M20 20a2 2 0 0 0 2-2V8a2 2 0 0 0-2-2h-7.9a2 2 0 0 1-1.69-.9L9.6 3.9A2 2 0 0 0 7.93 3H4a2 2 0 0 0-2 2v13a2 2 0 0 0 2 2Z" /></symbol>
</svg>
